<?xml version="1.0" encoding="UTF-8" ?>
<!DOCTYPE svg PUBLIC "-//W3C//DTD SVG 1.1//EN" "http://www.w3.org/Graphics/SVG/1.1/DTD/svg11.dtd">
<svg width="1040pt" height="1036pt" viewBox="0 0 1040 1036" version="1.1" xmlns="http://www.w3.org/2000/svg">
<g id="#037189ff">
<path fill="#037189" opacity="1.00" d=" M 0.00 0.00 L 1040.00 0.00 L 1040.00 1036.00 L 0.00 1036.00 L 0.00 0.00 M 724.18 131.70 C 679.34 136.68 634.71 144.83 591.64 158.44 C 557.82 169.10 525.03 183.25 494.57 201.47 C 467.93 217.34 443.15 236.31 420.81 257.81 C 387.25 290.05 359.29 327.74 335.82 367.83 C 319.16 396.47 305.45 426.73 293.36 457.56 C 280.05 491.65 268.70 526.50 258.58 561.67 C 212.07 562.19 165.55 562.75 119.04 563.28 C 114.59 563.34 110.14 564.27 106.06 566.06 C 92.31 571.80 83.64 587.34 86.08 602.06 C 88.10 618.01 102.88 631.06 118.97 630.94 C 159.51 630.54 200.05 630.03 240.59 629.55 C 228.89 677.65 218.92 726.16 210.27 774.90 C 202.81 817.10 196.22 859.46 190.98 901.99 C 190.12 907.78 190.58 913.80 192.67 919.30 C 197.35 932.52 210.95 941.85 224.99 941.39 C 240.50 941.43 254.92 929.38 257.61 914.11 C 269.81 818.10 286.91 722.63 310.57 628.76 C 376.08 628.00 441.59 627.22 507.10 626.50 C 506.11 656.66 505.08 686.82 504.08 716.98 C 503.66 725.06 506.25 733.25 511.29 739.58 C 517.79 747.93 528.36 752.88 538.95 752.46 C 551.86 752.23 564.11 743.81 569.04 731.89 C 571.42 726.60 571.83 720.74 571.87 715.02 C 572.86 685.25 573.86 655.48 574.85 625.71 C 593.36 625.46 611.87 625.28 630.38 625.05 C 629.44 654.37 628.52 683.70 627.58 713.02 C 627.40 717.79 628.19 722.62 630.01 727.05 C 634.63 738.83 646.36 747.40 659.02 748.12 C 672.88 749.32 686.84 740.90 692.33 728.13 C 695.88 720.72 695.19 712.34 695.57 704.37 C 696.42 677.67 697.27 650.97 698.12 624.28 C 712.74 624.09 727.37 623.93 742.00 623.76 C 748.72 623.88 755.68 623.62 761.83 620.58 C 775.50 614.52 783.81 598.68 780.95 583.98 C 778.57 568.71 764.50 556.36 749.03 556.04 C 732.79 556.12 716.54 556.36 700.29 556.58 C 700.96 533.66 701.74 510.75 702.45 487.84 C 702.77 482.20 702.82 476.41 700.87 471.03 C 696.38 456.91 681.75 446.93 666.95 448.02 C 650.57 448.53 636.08 462.58 635.07 478.93 C 634.10 505.06 633.41 531.21 632.51 557.34 C 614.04 557.53 595.57 557.78 577.10 557.97 C 578.46 518.98 579.71 479.99 581.05 441.01 C 582.47 427.90 575.77 414.32 564.22 407.85 C 552.24 400.76 535.97 402.19 525.46 411.33 C 518.25 417.36 513.76 426.51 513.49 435.92 C 512.11 476.85 510.75 517.79 509.38 558.72 C 449.39 559.48 389.41 560.18 329.42 560.80 C 337.76 533.33 346.95 506.10 357.53 479.41 C 369.30 449.77 382.63 420.63 399.38 393.45 C 417.62 363.57 438.74 335.31 463.64 310.64 C 484.24 290.13 507.45 272.24 532.60 257.64 C 563.62 239.56 597.38 226.48 632.00 217.15 C 673.81 205.89 716.84 199.77 759.94 196.29 C 805.20 192.69 850.64 192.00 896.02 192.82 C 900.58 192.95 905.18 192.21 909.44 190.53 C 923.54 185.27 932.80 169.81 930.70 154.89 C 929.08 138.69 914.28 125.21 897.99 125.16 C 840.00 124.11 781.87 125.36 724.18 131.70 Z" />
</g>
<g id="#ffffffff">
<path fill="#ffffff" opacity="1.00" d=" M 724.18 131.70 C 781.87 125.36 840.00 124.11 897.99 125.16 C 914.28 125.21 929.08 138.69 930.70 154.89 C 932.80 169.81 923.54 185.27 909.44 190.53 C 905.18 192.21 900.58 192.95 896.02 192.82 C 850.64 192.00 805.20 192.69 759.94 196.29 C 716.84 199.77 673.81 205.89 632.00 217.15 C 597.38 226.48 563.62 239.56 532.60 257.64 C 507.45 272.24 484.24 290.13 463.64 310.64 C 438.74 335.31 417.62 363.57 399.38 393.45 C 382.63 420.63 369.30 449.77 357.53 479.41 C 346.95 506.10 337.76 533.33 329.42 560.80 C 389.41 560.18 449.39 559.48 509.38 558.72 C 510.75 517.79 512.11 476.85 513.49 435.92 C 513.76 426.51 518.25 417.36 525.46 411.33 C 535.97 402.19 552.24 400.76 564.22 407.85 C 575.77 414.32 582.47 427.90 581.05 441.01 C 579.71 479.99 578.46 518.98 577.10 557.97 C 595.57 557.78 614.04 557.53 632.51 557.34 C 633.41 531.21 634.10 505.06 635.07 478.93 C 636.08 462.58 650.57 448.53 666.95 448.02 C 681.75 446.93 696.38 456.91 700.87 471.03 C 702.82 476.41 702.77 482.20 702.45 487.84 C 701.74 510.75 700.96 533.66 700.29 556.58 C 716.54 556.36 732.79 556.12 749.03 556.04 C 764.50 556.36 778.57 568.71 780.95 583.98 C 783.81 598.68 775.50 614.52 761.83 620.58 C 755.68 623.62 748.72 623.88 742.00 623.76 C 727.37 623.93 712.74 624.09 698.12 624.28 C 697.27 650.97 696.42 677.67 695.57 704.37 C 695.19 712.34 695.88 720.72 692.33 728.13 C 686.84 740.90 672.88 749.32 659.02 748.12 C 646.36 747.40 634.63 738.83 630.01 727.05 C 628.19 722.62 627.40 717.79 627.58 713.02 C 628.52 683.70 629.44 654.37 630.38 625.05 C 611.87 625.28 593.36 625.46 574.85 625.71 C 573.86 655.48 572.86 685.25 571.87 715.02 C 571.83 720.74 571.42 726.60 569.04 731.89 C 564.11 743.81 551.86 752.23 538.95 752.46 C 528.36 752.88 517.79 747.93 511.29 739.58 C 506.25 733.25 503.66 725.06 504.08 716.98 C 505.08 686.82 506.11 656.66 507.10 626.50 C 441.59 627.22 376.08 628.00 310.57 628.76 C 286.91 722.63 269.81 818.10 257.61 914.11 C 254.92 929.38 240.50 941.43 224.99 941.39 C 210.95 941.85 197.35 932.52 192.67 919.30 C 190.58 913.80 190.12 907.78 190.98 901.99 C 196.22 859.46 202.81 817.10 210.27 774.90 C 218.92 726.16 228.89 677.65 240.59 629.55 C 200.05 630.03 159.51 630.54 118.97 630.94 C 102.88 631.06 88.10 618.01 86.08 602.06 C 83.64 587.34 92.31 571.80 106.06 566.06 C 110.14 564.27 114.59 563.34 119.04 563.28 C 165.55 562.75 212.07 562.19 258.58 561.67 C 268.70 526.50 280.05 491.65 293.36 457.56 C 305.45 426.73 319.16 396.47 335.82 367.83 C 359.29 327.74 387.25 290.05 420.81 257.81 C 443.15 236.31 467.93 217.34 494.57 201.47 C 525.03 183.25 557.82 169.10 591.64 158.44 C 634.71 144.83 679.34 136.68 724.18 131.70 Z" />
</g>
</svg>
